<svg width="1024" height="1024" viewBox="0 0 1024 1024" fill="none" xmlns="http://www.w3.org/2000/svg">
<ellipse cx="512.5" cy="479.5" rx="280.5" ry="158.5" fill="#DAC982"/>
<rect x="513" y="135" width="148" height="77" fill="#E90004"/>
<rect x="210" y="506" width="609" height="411" fill="#DAC982"/>
<path d="M514 427L535.778 485.043H606.252L549.237 520.915L571.015 578.957L514 543.085L456.985 578.957L478.763 520.915L421.748 485.043H492.222L514 427Z" fill="#F6DF03"/>
<path d="M384 939.289C325.34 939.298 267.181 939.308 209.022 939.314C195.339 939.315 188.799 932.818 188.799 919.163C188.799 814.009 188.395 708.854 188.952 603.704C189.367 525.391 216.372 457.125 270.166 399.926C314.488 352.799 368.664 323.381 432.243 311.357C451.283 307.756 470.508 306.256 489.889 306.575C497.014 306.692 497.023 306.532 497.022 299.406C497.016 235.247 497.003 171.089 497.006 106.931C497.007 96.0047 501.004 89.5366 509.298 86.8678C519.562 83.565 530.553 90.9868 531.209 101.776C531.431 105.43 531.545 109.131 531.217 112.766C530.786 117.551 532.507 119.076 537.378 119.043C567.206 118.84 597.036 118.935 626.865 118.933C636.864 118.932 646.863 118.865 656.861 118.953C668.952 119.06 676.179 126.279 676.196 138.281C676.233 164.278 676.23 190.275 676.173 216.271C676.146 228.582 669.269 235.315 656.844 235.32C617.182 235.338 577.521 235.328 537.859 235.336C531.291 235.337 531.28 235.352 531.276 241.975C531.265 261.473 531.402 280.972 531.16 300.467C531.101 305.215 532.421 306.807 537.305 306.72C579.077 305.979 619.069 314.363 657.337 330.973C704.492 351.44 743.569 382.346 775.006 422.922C802.821 458.823 821.106 499.195 830.406 543.579C834.234 561.85 836.327 580.384 836.328 599.108C836.33 706.428 836.359 813.747 836.355 921.067C836.354 932.897 829.476 939.302 816.942 939.302C672.794 939.301 528.647 939.294 384 939.289ZM223.169 716.5C223.171 742.829 223.179 769.158 223.172 795.487C223.168 807.207 223.154 807.088 234.596 807.128C256.423 807.203 278.249 807.58 300.075 807.557C336.567 807.52 373.059 807.129 409.55 807.255C414.854 807.273 415.851 805.707 415.831 800.845C415.653 756.849 415.711 712.852 415.702 668.855C415.699 655.143 422.137 648.733 435.91 648.733C486.239 648.73 536.569 648.729 586.898 648.73C589.065 648.73 591.239 648.647 593.396 648.792C602.673 649.419 609.209 656.111 609.388 665.367C609.591 675.852 609.676 686.341 609.658 696.828C609.599 732.154 609.51 767.481 609.315 802.808C609.294 806.55 610.643 807.918 614.307 807.623C626.955 806.604 639.612 807.495 652.267 807.536C695.097 807.676 737.927 807.604 780.758 807.594C785.748 807.592 790.749 807.238 795.727 807.456C802.489 807.752 802.653 807.79 802.654 800.793C802.664 751.13 802.777 701.466 802.606 651.804C802.532 630.486 803.216 609.169 801.933 587.843C800.226 559.473 794.471 531.987 783.498 505.863C751.893 430.615 697.236 379.703 619.958 353.369C595.841 345.15 570.876 341.289 545.373 340.801C515.22 340.225 484.978 338.885 455.003 342.552C387.837 350.768 331.605 380.682 287.401 431.802C245.195 480.611 223.567 537.739 223.201 602.509C222.988 640.171 223.167 677.836 223.169 716.5ZM450.059 689.667C450.018 759.305 449.974 828.943 449.939 898.58C449.935 905.557 449.957 905.582 456.788 905.584C494.106 905.601 531.424 905.611 568.741 905.604C575.428 905.603 575.661 905.381 575.661 899.037C575.661 829.233 575.604 759.428 575.725 689.624C575.733 684.671 574.327 682.943 569.219 682.968C531.403 683.147 493.584 683.127 455.767 682.997C451.42 682.982 449.496 684.351 450.059 689.667ZM788.484 905.599C791.484 905.6 794.498 905.414 797.479 905.65C801.38 905.958 802.744 904.458 802.711 900.511C802.563 882.683 802.545 864.851 802.743 847.023C802.791 842.665 801.404 841.288 797.009 841.297C736.354 841.416 675.698 841.414 615.043 841.292C610.665 841.284 609.253 842.636 609.301 847.004C609.493 864.332 609.365 881.664 609.378 898.994C609.383 905.553 609.411 905.573 616.021 905.574C673.178 905.586 730.334 905.591 788.484 905.599ZM368.5 841.399C322.017 841.398 275.535 841.403 229.052 841.384C225.968 841.383 223.057 840.942 223.1 845.705C223.265 864.03 223.217 882.357 223.15 900.683C223.138 903.936 224.554 905.094 227.66 905.117C235.153 905.173 242.644 905.53 250.136 905.538C303.449 905.593 356.763 905.552 410.076 905.682C414.438 905.692 415.879 904.275 415.832 899.917C415.641 882.425 415.589 864.928 415.85 847.439C415.924 842.482 414.152 841.211 409.484 841.301C396.16 841.557 382.828 841.397 368.5 841.399ZM566.5 153.264C556.339 153.266 546.177 153.31 536.016 153.243C533.161 153.224 531.216 153.649 531.246 157.244C531.359 170.736 531.315 184.229 531.266 197.722C531.257 200.233 532.132 201.378 534.8 201.213C537.954 201.017 541.127 201.09 544.292 201.107C574.438 201.269 604.583 201.466 634.729 201.598C641.904 201.629 641.877 201.535 641.864 194.604C641.842 182.777 641.67 170.945 641.95 159.125C642.06 154.499 640.531 153.117 635.964 153.157C613.144 153.355 590.322 153.257 566.5 153.264Z" fill="black"/>
<path d="M448.416 605.071C439.971 600.163 437.267 594.195 438.926 584.212C441.598 568.13 444.268 552.046 447.216 536.013C447.846 532.584 446.989 530.36 444.611 528.074C432.961 516.872 421.461 505.513 409.807 494.316C404.073 488.806 401.047 482.587 403.759 474.602C406.473 466.611 412.673 463.695 420.566 462.664C436.902 460.531 453.18 457.961 469.503 455.723C472.788 455.273 473.803 452.933 474.976 450.556C482.131 436.071 489.305 421.595 496.38 407.071C499.51 400.644 504.024 396.12 511.505 395.672C519.375 395.201 524.945 398.962 528.383 405.834C535.461 419.986 542.519 434.152 549.321 448.438C551.482 452.975 553.886 455.652 559.488 456.27C575.032 457.986 590.471 460.647 605.966 462.83C613.498 463.892 619.288 467.27 621.774 474.743C624.181 481.977 621.948 488.092 616.545 493.305C604.913 504.527 593.465 515.941 581.705 527.025C578.484 530.061 577.742 533.192 578.461 537.268C581.295 553.331 583.946 569.426 586.796 585.486C588.086 592.755 586.096 598.785 580.222 603.159C574.278 607.585 567.772 607.425 561.363 604.085C546.59 596.387 531.823 588.674 517.166 580.758C514.029 579.064 511.591 579 508.42 580.714C494.062 588.477 479.53 595.916 465.133 603.606C459.833 606.437 454.49 607.252 448.416 605.071ZM555.519 505.017C559.33 500.583 564.617 497.514 568.257 491.898C560.111 490.701 552.774 489.003 545.377 488.679C533.615 488.165 526.87 482.065 522.688 471.619C520.001 464.91 516.423 458.557 512.735 450.999C508.261 460.078 504.125 468.002 500.423 476.123C496.947 483.748 491.114 487.379 482.979 488.288C474.622 489.222 466.314 490.599 457.95 491.787C458.152 494.288 459.881 495.248 461.113 496.483C466.167 501.55 471.141 506.714 476.449 511.506C482.52 516.986 484.27 523.42 482.631 531.326C480.894 539.711 479.717 548.212 478.095 557.85C484.31 554.705 489.915 552.731 494.512 549.376C507.028 540.241 518.922 540.918 531.289 549.595C535.921 552.844 541.364 554.936 547.357 558.031C546.244 551.333 545.807 545.656 544.308 540.275C540.404 526.259 542.298 514.287 555.519 505.017Z" fill="black"/>
<path d="M292.097 712.244C271.416 712.025 255.462 698.33 253.748 678.329C252.026 658.243 252.245 637.991 253.546 617.908C254.912 596.81 268.411 583.499 289.757 582.398C310.18 581.345 330.744 580.975 351.178 582.766C368.799 584.31 383.12 600.326 383.268 618.001C383.431 637.328 383.444 656.66 383.252 675.988C383.057 695.632 366.312 712.103 346.571 712.224C328.575 712.334 310.579 712.245 292.097 712.244ZM318.5 677.888C326.66 677.873 334.824 677.723 342.98 677.901C347.144 677.992 349.071 676.634 349.04 672.201C348.923 655.382 348.99 638.561 349.068 621.741C349.085 617.991 347.525 616.257 343.699 616.27C326.713 616.328 309.726 616.318 292.74 616.27C288.957 616.259 287.322 617.978 287.334 621.742C287.384 638.562 287.398 655.383 287.306 672.202C287.284 676.255 289.051 677.94 293.02 677.901C301.179 677.821 309.34 677.884 318.5 677.888Z" fill="black"/>
<path d="M641.838 651C641.948 639.015 641.041 627.409 642.389 616.071C644.805 595.757 657.837 583.295 678.169 582.349C698.1 581.423 718.151 581.098 738.077 582.683C757.558 584.232 771.717 599.81 772.035 619.415C772.337 638.064 772.346 656.725 772.046 675.374C771.716 695.838 754.81 712.122 734.229 712.214C716.241 712.294 698.253 712.272 680.266 712.237C658.695 712.194 642.289 696.088 641.867 674.484C641.717 666.825 641.84 659.161 641.838 651ZM681.046 616.289C676.949 616.275 676.19 618.859 676.2 622.271C676.247 638.91 676.303 655.549 676.174 672.187C676.143 676.168 677.437 677.945 681.612 677.917C698.416 677.802 715.222 677.818 732.026 677.925C736.256 677.952 737.96 676.336 737.916 672.004C737.747 655.533 737.701 639.059 737.871 622.589C737.92 617.766 736.03 616.15 731.363 616.196C714.892 616.359 698.419 616.267 681.046 616.289Z" fill="black"/>
</svg>
